<svg version="1.1" id="Layer_1" xmlns="http://www.w3.org/2000/svg" xmlns:xlink="http://www.w3.org/1999/xlink" x="0px" y="0px"
	 width="100%" viewBox="0 0 140 151" enable-background="new 0 0 140 151" xml:space="preserve">
<path fill="#F68910" opacity="1.000000" stroke="none" 
	d="
M11.999997,152.000000 
	C8.362755,152.000000 4.725511,152.000000 1.000000,152.000000 
	C1.000000,137.645874 1.000000,123.291595 1.331644,108.385483 
	C8.605218,101.267448 15.547147,94.701248 22.667747,88.487335 
	C23.799574,91.607925 24.752729,94.376236 25.867308,97.613365 
	C29.556442,95.808411 32.599728,94.319443 34.774708,93.255302 
	C33.897537,86.885567 33.134712,81.346161 32.745888,75.779488 
	C34.261730,75.143715 35.629707,74.763756 36.510933,73.891846 
	C46.967968,63.545341 57.386044,53.158573 67.705132,42.674870 
	C68.765305,41.597786 69.119942,39.826244 70.160980,38.291718 
	C75.250351,38.895023 79.980698,39.583557 85.195541,40.342613 
	C86.348686,37.566326 87.651604,34.429436 89.106255,30.927256 
	C86.500816,30.016689 84.339417,29.261309 82.483459,28.264545 
	C89.974060,20.734049 97.199028,13.483404 104.311287,6.123834 
	C105.758530,4.626254 106.781464,2.718607 108.000000,1.000000 
	C118.911682,1.000000 129.823364,1.000000 141.000000,1.000000 
	C141.000000,8.018599 141.000000,15.040517 140.641693,22.560936 
	C138.529892,24.198883 136.539230,25.093218 135.064224,26.520472 
	C128.895676,32.489307 122.962120,38.702084 116.755386,44.629593 
	C115.188599,46.125889 112.930092,46.897892 110.710327,47.819954 
	C107.696571,44.596870 104.961937,41.556553 101.935669,38.192001 
	C99.284302,41.472805 97.151184,44.112335 95.466370,46.197124 
	C98.622063,50.817448 101.398834,54.882988 103.832443,59.033367 
	C101.111137,61.127335 98.758583,63.167767 96.348289,65.137527 
	C93.446526,67.508926 90.495667,69.820244 87.346222,71.892998 
	C84.361084,63.385147 77.817497,58.651039 69.678009,59.004990 
	C61.854443,59.345200 55.278030,64.879333 53.406067,72.698051 
	C51.319660,81.412445 55.920803,89.152054 65.923676,94.225586 
	C63.869514,96.904305 61.872417,99.225716 59.923515,101.586899 
	C57.575371,104.431793 55.268158,107.310455 52.585030,110.137878 
	C48.877098,107.761612 45.527355,105.421951 41.781200,102.805420 
	C39.481220,104.947906 37.000229,107.259010 34.124294,109.938019 
	C37.398113,112.767647 40.252930,115.235123 42.932583,118.007050 
	C33.728325,127.484474 24.638546,136.599197 15.725778,145.883850 
	C14.111678,147.565292 13.223372,149.943466 11.999997,152.000000 
z"/>
<path fill="#F68312" opacity="1.000000" stroke="none" 
	d="
M110.989456,48.002731 
	C112.930092,46.897892 115.188599,46.125889 116.755386,44.629593 
	C122.962120,38.702084 128.895676,32.489307 135.064224,26.520472 
	C136.539230,25.093218 138.529892,24.198883 140.641693,23.029720 
	C141.000000,37.020893 141.000000,51.041790 140.641693,65.561020 
	C135.489243,70.239273 130.756073,74.492325 125.871017,78.563148 
	C123.912689,80.195076 121.620285,81.426132 119.457954,82.423973 
	C119.557159,80.394501 119.678352,78.780701 119.827553,76.793945 
	C116.044868,76.793945 112.677086,76.793945 110.028214,76.793945 
	C107.597130,84.243782 105.283669,91.333176 102.819031,98.885826 
	C102.727745,98.818527 103.475731,99.370010 103.967735,100.149437 
	C101.101044,102.931664 98.490326,105.485939 95.585258,107.863838 
	C94.703094,107.515053 93.977005,107.028496 93.548164,107.217255 
	C86.952728,110.120239 80.395981,113.111107 73.320839,116.312027 
	C73.458412,118.037827 73.435593,120.724411 74.004425,123.279266 
	C74.204277,124.176888 75.855621,124.751320 76.808334,125.841110 
	C73.097694,130.389877 69.430527,134.577606 65.746071,138.750046 
	C61.839279,143.174271 57.916050,147.583969 54.000000,152.000000 
	C40.312439,152.000000 26.624876,152.000000 12.468655,152.000000 
	C13.223372,149.943466 14.111678,147.565292 15.725778,145.883850 
	C24.638546,136.599197 33.728325,127.484474 43.272186,118.115692 
	C48.749748,120.213005 53.712551,122.506126 59.174145,125.029716 
	C60.183659,120.577415 60.899822,117.418884 61.604351,114.311676 
	C58.502750,112.830124 55.722984,111.502312 52.943222,110.174500 
	C55.268158,107.310455 57.575371,104.431793 59.923515,101.586899 
	C61.872417,99.225716 63.869514,96.904305 66.366776,94.168320 
	C81.155518,94.797791 89.403717,86.176208 87.566063,72.157570 
	C90.495667,69.820244 93.446526,67.508926 96.348289,65.137527 
	C98.758583,63.167767 101.111137,61.127335 104.094101,59.252899 
	C105.652939,61.446041 106.606941,63.504482 107.633179,65.718781 
	C111.077538,64.674446 114.210785,63.724442 118.209801,62.511932 
	C115.648521,57.365074 113.318993,52.683903 110.989456,48.002731 
z"/>
<path fill="#F5900E" opacity="1.000000" stroke="none" 
	d="
M107.531342,1.000000 
	C106.781464,2.718607 105.758530,4.626254 104.311287,6.123834 
	C97.199028,13.483404 89.974060,20.734049 82.100266,28.225245 
	C74.400536,27.123020 67.402840,26.355246 60.448277,28.666153 
	C61.859882,38.473698 61.859882,38.473698 69.801964,38.376949 
	C69.119942,39.826244 68.765305,41.597786 67.705132,42.674870 
	C57.386044,53.158573 46.967968,63.545341 36.510933,73.891846 
	C35.629707,74.763756 34.261730,75.143715 32.675480,75.394753 
	C32.366745,69.681625 29.998985,68.415123 20.987907,69.719353 
	C21.484684,75.813583 21.986879,81.974312 22.489077,88.135048 
	C15.547147,94.701248 8.605218,101.267448 1.331644,107.916824 
	C1.000000,90.312439 1.000000,72.624878 1.331641,54.385483 
	C2.859838,52.970665 4.199330,52.251198 5.231505,51.223171 
	C20.636786,35.879784 36.017151,20.511217 51.343369,5.088940 
	C52.464851,3.960430 53.125240,2.373697 54.000000,1.000000 
	C71.687561,1.000000 89.375122,1.000000 107.531342,1.000000 
M36.728447,58.453049 
	C41.369282,53.000446 46.010117,47.547840 50.962723,41.728935 
	C49.741119,39.575871 48.137356,36.749252 46.344902,33.590069 
	C37.507061,38.839668 30.961969,45.473202 26.341532,54.951054 
	C29.857838,56.371216 32.995895,57.638611 36.728447,58.453049 
z"/>
<path fill="#F77E13" opacity="1.000000" stroke="none" 
	d="
M119.479935,82.839653 
	C121.620285,81.426132 123.912689,80.195076 125.871017,78.563148 
	C130.756073,74.492325 135.489243,70.239273 140.641693,66.029678 
	C141.000000,79.020897 141.000000,92.041786 140.668365,105.614563 
	C139.139252,107.030411 137.799561,107.751480 136.765823,108.780037 
	C123.694145,121.786186 110.648087,134.818329 97.660255,147.908096 
	C96.538383,149.038788 95.875893,150.625259 95.000000,152.000000 
	C81.645775,152.000000 68.291542,152.000000 54.468658,152.000000 
	C57.916050,147.583969 61.839279,143.174271 65.746071,138.750046 
	C69.430527,134.577606 73.097694,130.389877 77.158264,125.703079 
	C86.147545,123.898788 93.934074,120.776779 100.865585,115.085968 
	C99.068634,112.546677 97.474121,110.293449 95.879608,108.040207 
	C98.490326,105.485939 101.101044,102.931664 104.290604,100.232697 
	C106.891006,101.414520 108.912560,102.741035 112.303391,104.966042 
	C114.876671,97.032211 117.178307,89.935928 119.479935,82.839653 
z"/>
<path fill="#F6970D" opacity="1.000000" stroke="none" 
	d="
M53.531342,1.000000 
	C53.125240,2.373697 52.464851,3.960430 51.343369,5.088940 
	C36.017151,20.511217 20.636786,35.879784 5.231505,51.223171 
	C4.199330,52.251198 2.859838,52.970665 1.331641,53.916824 
	C1.000000,36.406563 1.000000,18.813124 1.000000,1.000000 
	C18.353609,1.000000 35.708145,1.000000 53.531342,1.000000 
z"/>
<path fill="#F87A14" opacity="1.000000" stroke="none" 
	d="
M95.468658,152.000000 
	C95.875893,150.625259 96.538383,149.038788 97.660255,147.908096 
	C110.648087,134.818329 123.694145,121.786186 136.765823,108.780037 
	C137.799561,107.751480 139.139252,107.030411 140.668365,106.083221 
	C141.000000,121.260048 141.000000,136.520096 141.000000,152.000000 
	C125.979820,152.000000 110.958572,152.000000 95.468658,152.000000 
z"/>
<path fill="#0B0A0B" opacity="1.000000" stroke="none" 
	d="
M87.346222,71.892998 
	C89.403717,86.176208 81.155518,94.797791 66.445190,93.828651 
	C55.920803,89.152054 51.319660,81.412445 53.406067,72.698051 
	C55.278030,64.879333 61.854443,59.345200 69.678009,59.004990 
	C77.817497,58.651039 84.361084,63.385147 87.346222,71.892998 
z"/>
<path fill="#100D0B" opacity="1.000000" stroke="none" 
	d="
M70.160980,38.291718 
	C61.859882,38.473698 61.859882,38.473698 60.448277,28.666153 
	C67.402840,26.355246 74.400536,27.123020 81.794823,28.466627 
	C84.339417,29.261309 86.500816,30.016689 89.106255,30.927256 
	C87.651604,34.429436 86.348686,37.566326 85.195541,40.342613 
	C79.980698,39.583557 75.250351,38.895023 70.160980,38.291718 
z"/>
<path fill="#0F0C0B" opacity="1.000000" stroke="none" 
	d="
M22.667747,88.487335 
	C21.986879,81.974312 21.484684,75.813583 20.987907,69.719353 
	C29.998985,68.415123 32.366745,69.681625 32.301476,75.422020 
	C33.134712,81.346161 33.897537,86.885567 34.774708,93.255302 
	C32.599728,94.319443 29.556442,95.808411 25.867308,97.613365 
	C24.752729,94.376236 23.799574,91.607925 22.667747,88.487335 
z"/>
<path fill="#0F0C0B" opacity="1.000000" stroke="none" 
	d="
M110.710327,47.819958 
	C113.318993,52.683903 115.648521,57.365074 118.209801,62.511932 
	C114.210785,63.724442 111.077538,64.674446 107.633179,65.718781 
	C106.606941,63.504482 105.652939,61.446041 104.437271,59.168060 
	C101.398834,54.882988 98.622063,50.817448 95.466370,46.197124 
	C97.151184,44.112335 99.284302,41.472805 101.935669,38.192001 
	C104.961937,41.556553 107.696571,44.596870 110.710327,47.819958 
z"/>
<path fill="#0E0B0B" opacity="1.000000" stroke="none" 
	d="
M52.585030,110.137878 
	C55.722984,111.502312 58.502750,112.830124 61.604351,114.311676 
	C60.899822,117.418884 60.183659,120.577415 59.174145,125.029716 
	C53.712551,122.506126 48.749748,120.213005 43.447350,117.811241 
	C40.252930,115.235123 37.398113,112.767647 34.124294,109.938019 
	C37.000229,107.259010 39.481220,104.947906 41.781200,102.805420 
	C45.527355,105.421951 48.877098,107.761612 52.585030,110.137878 
z"/>
<path fill="#110D0B" opacity="1.000000" stroke="none" 
	d="
M119.457947,82.423973 
	C117.178307,89.935928 114.876671,97.032211 112.303391,104.966042 
	C108.912560,102.741035 106.891006,101.414520 104.546577,100.004745 
	C103.475731,99.370010 102.727745,98.818527 102.819031,98.885826 
	C105.283669,91.333176 107.597130,84.243782 110.028214,76.793945 
	C112.677086,76.793945 116.044868,76.793945 119.827553,76.793945 
	C119.678352,78.780701 119.557159,80.394501 119.457947,82.423973 
z"/>
<path fill="#0E0C0B" opacity="1.000000" stroke="none" 
	d="
M95.585266,107.863846 
	C97.474121,110.293449 99.068634,112.546677 100.865585,115.085968 
	C93.934074,120.776779 86.147545,123.898788 77.194122,125.335297 
	C75.855621,124.751320 74.204277,124.176888 74.004425,123.279266 
	C73.435593,120.724411 73.458412,118.037827 73.320839,116.312027 
	C80.395981,113.111107 86.952728,110.120239 93.548164,107.217255 
	C93.977005,107.028496 94.703094,107.515053 95.585266,107.863846 
z"/>
<path fill="#0F0D0B" opacity="1.000000" stroke="none" 
	d="
M36.431198,58.679527 
	C32.995895,57.638611 29.857838,56.371216 26.341532,54.951054 
	C30.961969,45.473202 37.507061,38.839668 46.344902,33.590069 
	C48.137356,36.749252 49.741119,39.575871 50.962723,41.728935 
	C46.010117,47.547840 41.369282,53.000446 36.431198,58.679527 
z"/>
</svg>